/* XPM */
static char *_48f59b31bc648a0b1d7a10d11389852ueBA4bY8TGGVZHzW[] = {
/* columns rows colors chars-per-pixel */
"64 64 4 1 ",
"  c None",
". c #AC3232",
"X c #FBF236",
"o c white",
/* pixels */
"                                                                ",
"                                                                ",
"                                                                ",
"                                                                ",
"                                                                ",
"                                                                ",
"                                                                ",
"                                                                ",
"    oo..              ..oo        ooooXXoooooooooooooo          ",
"    oo..              ..oo        ooooXXoooooooooooooo          ",
"    oo..              ....            XXooooooXXXXXXoo          ",
"    oo..              ....            XXooooooXXXXXXoo          ",
"    oo..                ....          XXXXXXXXXX  XXoo          ",
"    oo..                ....          XXXXXXXXXX  XXoo          ",
"    oo..                oo..                  ooooXXXX          ",
"    oo..                oo..                  ooooXXXX          ",
"    oo..                oo..                      XXXX          ",
"    oo..                oo..                      XXXX          ",
"    ....                oo..                      XXoo          ",
"    ....                oo..                      XXoo          ",
"  ....                  oo..                      XXoo          ",
"  ....                  oo..                      XXoo          ",
"  ....                ..oo                        XXoo          ",
"  ....                ..oo                        XXoo          ",
"    oo....          ....oo                        XXoo          ",
"    oo....          ....oo                        XXoo          ",
"    oo  ....        ..  oo..                      XXoo          ",
"    oo  ....        ..  oo..                      XXoo          ",
"    oo    ....      ..  oo..                    ooXXoo          ",
"    oo    ....      ..  oo..                    ooXXoo          ",
"    oooooooo....oo....oooooo                    XXXXoo          ",
"    oooooooo....oo....oooooo                    XXXXoo          ",
"              ......    ....            XXXXXXXXXXoooo          ",
"              ......    ....            XXXXXXXXXXoooo          ",
"                          ..    ooooXXXXXXoooooo                ",
"                          ..    ooooXXXXXXoooooo                ",
"                          ..    oo  XX                          ",
"                          ..    oo  XX                          ",
"                          ..    ooXXXX                          ",
"                          ..    ooXXXX                          ",
"                          oo..  ooXX                            ",
"                          oo..  ooXX                            ",
"                          oo..  ooXX                            ",
"                          oo..  ooXX                            ",
"                          ..    ooXX                            ",
"                          ..    ooXX                            ",
"                          ..    XXXX                            ",
"                          ..    XXXX                            ",
"                        ....    XXoo                            ",
"                        ....    XXoo                            ",
"                      ....oo    XXoooo                          ",
"                      ....oo    XXoooo                          ",
"                      ..  oo    XXoooooo                        ",
"                      ..  oo    XXoooooo                        ",
"                      ..  oo    XXXX  oooo            XXXX      ",
"                      ..  oo    XXXX  oooo            XXXX      ",
"                      ..  oo      XXXXXXXXXXooooooooooXXoo      ",
"                      ..  oo      XXXXXXXXXXooooooooooXXoo      ",
"                                          XXXXXXXXXXXXXX        ",
"                                          XXXXXXXXXXXXXX        ",
"                                                                ",
"                                                                ",
"                                                                ",
"                                                                "
};
