/* XPM */
static char *_56dae2a012244e2850f00c4e9ed2e53631mqKHlRTxENV5f[] = {
/* columns rows colors chars-per-pixel */
"32 32 4 1 ",
"  c None",
". c #AC3232",
"X c #FBF236",
"o c white",
/* pixels */
"                                ",
"                                ",
"                                ",
"                                ",
"     o.       .o    ooXooooooo  ",
"     o.       ..      XoooXXXo  ",
"     o.        ..     XXXXX Xo  ",
"     o.        o.         ooXX  ",
"     o.        o.           XX  ",
"     ..        o.           Xo  ",
"    ..         o.           Xo  ",
"    ..        .o            Xo  ",
"     o..     ..o            Xo  ",
"     o ..    . o.           Xo  ",
"     o  ..   . o.          oXo  ",
"     oooo..o..ooo          XXo  ",
"          ...  ..      XXXXXoo  ",
"                .  ooXXXooo     ",
"                .  o X          ",
"                .  oXX          ",
"                o. oX           ",
"                o. oX           ",
"                .  oX           ",
"                .  XX           ",
"               ..  Xo           ",
"              ..o  Xoo          ",
"              . o  Xooo         ",
"              . o  XX oo      XX",
"              . o   XXXXXoooooXo",
"                        XXXXXXX ",
"                                ",
"                                "
};
