/* XPM */
static char *fd662b66cf0f4596b67cb9500eb176cbXK2yWlmKcWDAszAI[] = {
/* columns rows colors chars-per-pixel */
"128 128 4 1 ",
"  c None",
". c #AC3232",
"X c #FBF236",
"o c white",
/* pixels */
"                                                                                                                                ",
"                                                                                                                                ",
"                                                                                                                                ",
"                                                                                                                                ",
"                                                                                                                                ",
"                                                                                                                                ",
"                                                                                                                                ",
"                                                                                                                                ",
"                                                                                                                                ",
"                                                                                                                                ",
"                                                                                                                                ",
"                                                                                                                                ",
"                                                                                                                                ",
"                                                                                                                                ",
"                                                                                                                                ",
"                                                                                                                                ",
"        oooo....                            ....oooo                ooooooooXXXX            oooooooooooooooo                    ",
"        oooo....                            ....oooo                ooooooooXXXXoooooooooooooooooooooooooooo                    ",
"        oooo....                            ....oooo                ooooooooXXXXoooooooooooooooooooooooooooo                    ",
"        oooo....                            ....oooo                ooooooooXXXXoooooooooooooooooooooooooooo                    ",
"        oooo....                            ........                        XXXXooooooooooooXXXXXXXXXXXXoooo                    ",
"        oooo....                            ........                        XXXXooooooooooooXXXXXXXXXXXXoooo                    ",
"        oooo....                            ........                        XXXXooooooooooooXXXXXXXXXXXXoooo                    ",
"        oooo....                            ........                        XXXXooooooooooooXXXXXXXXXXXXoooo                    ",
"        oooo....                                ........                    XXXXXXXXXXXXXXXXXXXX    XXXXoooo                    ",
"        oooo....                                ........                    XXXXXXXXXXXXXXXXXXXX    XXXXoooo                    ",
"        oooo....                                ........                    XXXXXXXXXXXXXXXXXXXX    XXXXoooo                    ",
"        oooo....                                ........                    XXXXXXXXXXXXXXXXXXXX    XXXXoooo                    ",
"        oooo....                                oooo....                                    ooooooooXXXXXXXX                    ",
"        oooo....                                oooo....                                    ooooooooXXXXXXXX                    ",
"        oooo....                                oooo....                                    ooooooooXXXXXXXX                    ",
"        oooo....                                oooo....                                    ooooooooXXXXXXXX                    ",
"        oooo....                                oooo....                                            XXXXXXXX                    ",
"        oooo....                                oooo....                                            XXXXXXXX                    ",
"        oooo....                                oooo....                                            XXXXXXXX                    ",
"        oooo....                                oooo....                                            XXXXXXXX                    ",
"        ........                                oooo....                                            XXXXoooo                    ",
"        ........                                oooo....                                            XXXXoooo                    ",
"        ........                                oooo....                                            XXXXoooo                    ",
"        ........                                oooo....                                            XXXXoooo                    ",
"    ........                                    oooo....                                            XXXXoooo                    ",
"    ........                                    oooo....                                            XXXXoooo                    ",
"    ........                                    oooo....                                            XXXXoooo                    ",
"    ........                                    oooo....                                            XXXXoooo                    ",
"    ........                                ....oooo                                                XXXXoooo                    ",
"    ........                                ....oooo                                                XXXXoooo                    ",
"    ........                                ....oooo                                                XXXXoooo                    ",
"    ........                                ....oooo                                                XXXXoooo                    ",
"        oooo........                    ........oooo                                                XXXXoooo                    ",
"        oooo........                    ........oooo                                                XXXXoooo                    ",
"        oooo........                    ........oooo                                                XXXXoooo                    ",
"        oooo........                    ........oooo                                                XXXXoooo                    ",
"        oooo    ........                ....    oooo....                                            XXXXoooo                    ",
"        oooo    ........                ....    oooo....                                            XXXXoooo                    ",
"        oooo    ........                ....    oooo....                                            XXXXoooo                    ",
"        oooo    ........                ....    oooo....                                            XXXXoooo                    ",
"        oooo        ........            ....    oooo....                                        ooooXXXXoooo                    ",
"        oooo        ........            ....    oooo....                                        ooooXXXXoooo                    ",
"        oooo        ........            ....    oooo....                                        ooooXXXXoooo                    ",
"        oooo        ........            ....    oooo....                                        ooooXXXXoooo                    ",
"        oooooooooooooooo........oooo........oooooooooooo                                        XXXXXXXXoooo                    ",
"        oooooooooooooooo........oooo........oooooooooooo                                        XXXXXXXXoooo                    ",
"        oooooooooooooooo........oooo........oooooooooooo                                        XXXXXXXXoooo                    ",
"        oooooooooooooooo........oooo........oooooooooooo                                        XXXXXXXXoooo                    ",
"                            ............        ........                        XXXXXXXXXXXXXXXXXXXXoooooooo                    ",
"                            ............        ........                        XXXXXXXXXXXXXXXXXXXXoooooooo                    ",
"                            ............        ........                        XXXXXXXXXXXXXXXXXXXXoooooooo                    ",
"                            ............        ........                        XXXXXXXXXXXXXXXXXXXXoooooooo                    ",
"                                                    ....        ooooooooXXXXXXXXXXXXoooooooooooo                                ",
"                                                    ....        ooooooooXXXXXXXXXXXXoooooooooooo                                ",
"                                                    ....        ooooooooXXXXXXXXXXXXoooooooooooo                                ",
"                                                    ....        ooooooooXXXXXXXXXXXXoooooooooooo                                ",
"                                                    ....        oooo    XXXX                                                    ",
"                                                    ....        oooo    XXXX                                                    ",
"                                                    ....        oooo    XXXX                                                    ",
"                                                    ....        oooo    XXXX                                                    ",
"                                                    ....        ooooXXXXXXXX                                                    ",
"                                                    ....        ooooXXXXXXXX                                                    ",
"                                                    ....        ooooXXXXXXXX                                                    ",
"                                                    ....        ooooXXXXXXXX                                                    ",
"                                                    oooo....    ooooXXXX                                                        ",
"                                                    oooo....    ooooXXXX                                                        ",
"                                                    oooo....    ooooXXXX                                                        ",
"                                                    oooo....    ooooXXXX                                                        ",
"                                                    oooo....    ooooXXXX                                                        ",
"                                                    oooo....    ooooXXXX                                                        ",
"                                                    oooo....    ooooXXXX                                                        ",
"                                                    oooo....    ooooXXXX                                                        ",
"                                                    ....        ooooXXXX                                                        ",
"                                                    ....        ooooXXXX                                                        ",
"                                                    ....        ooooXXXX                                                        ",
"                                                    ....        ooooXXXX                                                        ",
"                                                    ....        XXXXXXXX                                                        ",
"                                                    ....        XXXXXXXX                                                        ",
"                                                    ....        XXXXXXXX                                                        ",
"                                                    ....        XXXXXXXX                                                        ",
"                                                ........        XXXXoooo                                                        ",
"                                                ........        XXXXoooo                                                        ",
"                                                ........        XXXXoooo                                                        ",
"                                                ........        XXXXoooo                                                        ",
"                                            ........oooo        XXXXoooooooo                                                    ",
"                                            ........oooo        XXXXoooooooo                                                    ",
"                                            ........oooo        XXXXoooooooo                                                    ",
"                                            ........oooo        XXXXoooooooo                                                    ",
"                                            ....    oooo        XXXXoooooooooooo                                                ",
"                                            ....    oooo        XXXXoooooooooooo                                                ",
"                                            ....    oooo        XXXXoooooooooooo                                                ",
"                                            ....    oooo        XXXXoooooooooooo                                                ",
"                                            ....    oooo        XXXXXXXX    oooooooo                        XXXXXXXX            ",
"                                            ....    oooo        XXXXXXXX    oooooooo                        XXXXXXXX            ",
"                                            ....    oooo        XXXXXXXX    oooooooo                        XXXXXXXX            ",
"                                            ....    oooo        XXXXXXXX    oooooooo                        XXXXXXXX            ",
"                                            ....    oooo            XXXXXXXXXXXXXXXXXXXXooooooooooooooooooooXXXXoooo            ",
"                                            ....    oooo            XXXXXXXXXXXXXXXXXXXXooooooooooooooooooooXXXXoooo            ",
"                                            ....    oooo            XXXXXXXXXXXXXXXXXXXXooooooooooooooooooooXXXXoooo            ",
"                                            ....    oooo            XXXXXXXXXXXXXXXXXXXXooooooooooooooooooooXXXXoooo            ",
"                                                                                    XXXXXXXXXXXXXXXXXXXXXXXXXXXX                ",
"                                                                                    XXXXXXXXXXXXXXXXXXXXXXXXXXXX                ",
"                                                                                    XXXXXXXXXXXXXXXXXXXXXXXXXXXX                ",
"                                                                                    XXXXXXXXXXXXXXXXXXXXXXXXXXXX                ",
"                                                                                                                                ",
"                                                                                                                                ",
"                                                                                                                                ",
"                                                                                                                                ",
"                                                                                                                                ",
"                                                                                                                                ",
"                                                                                                                                ",
"                                                                                                                                "
};
